<svg xmlns="http://www.w3.org/2000/svg" viewBox="0 0 60 60"><path fill="#fff" d="M43.007 53.395c-5.641-2.044-10.223-3.101-13.517-3.419v-.333c.737.029 1.468.067 2.228.067 7.069 0 12.892-1.306 17.469-3.915 4.576-2.61 7.211-6.095 7.906-10.454l-.378-.136c-3.347 4.086-7.891 6.129-13.634 6.129-6.06 0-10.952-1.906-14.676-5.721-3.726-3.813-5.586-8.829-5.586-15.048 0-4.812 1.057-8.875 3.171-12.189 2.115-3.313 4.687-4.971 7.717-4.971.694 0 1.136.045 1.326.136l19.789 11.576h.473V2.111C50.244.704 44.374 0 37.683 0c-11.551 0-20.72 2.383-27.505 7.15S0 18.318 0 26.353c0 .12.008.237.01.356L0 26.701c.003.068.012.134.015.203.085 3.527.983 6.724 2.7 9.587.318.571.654 1.136 1.028 1.685 2.52 3.7 6.476 7.208 11.865 10.52L33.949 60H60v-.341l-16.993-6.264z"/></svg>